<?xml version="1.0" standalone="no"?>
<!DOCTYPE svg PUBLIC "-//W3C//DTD SVG 20010904//EN"
 "http://www.w3.org/TR/2001/REC-SVG-20010904/DTD/svg10.dtd">
<svg version="1.0" xmlns="http://www.w3.org/2000/svg"
 width="64.000000pt" height="64.000000pt" viewBox="0 0 64.000000 64.000000"
 preserveAspectRatio="xMidYMid meet">

<g transform="translate(0.000000,64.000000) scale(0.100000,-0.100000)"
fill="#000000" stroke="none">
<path d="M220 421 c0 -10 7 -24 15 -31 8 -7 15 -23 15 -36 0 -23 3 -24 75 -24
70 0 75 1 75 22 0 12 7 29 16 39 9 10 14 25 11 34 -5 12 -26 15 -107 15 -91 0
-100 -2 -100 -19z"/>
<path d="M193 374 c-3 -9 -1 -25 5 -35 7 -10 12 -36 12 -57 0 -21 7 -47 15
-58 13 -17 14 -11 15 67 0 70 -3 88 -16 93 -22 9 -24 8 -31 -10z"/>
<path d="M417 383 c-11 -11 -8 -173 3 -173 6 0 10 22 10 49 0 29 7 62 18 80
15 28 15 33 2 41 -18 12 -24 12 -33 3z"/>
<path d="M250 295 c0 -12 14 -15 69 -15 52 0 70 4 75 15 4 13 -7 15 -69 15
-60 0 -75 -3 -75 -15z"/>
<path d="M250 245 c0 -24 2 -25 69 -25 54 0 70 3 75 16 11 28 -3 34 -75 34
-67 0 -69 -1 -69 -25z"/>
</g>
</svg>
